<svg width="38" height="38" viewBox="0 0 38 38" fill="none" xmlns="http://www.w3.org/2000/svg">
<title>Icon Facebook</title>
<g id="icons8-facebook">
<path id="Path" d="M19 0C8.50659 0 0 8.50659 0 19C0 29.4934 8.50659 38 19 38C29.4934 38 38 29.4934 38 19C38 8.50659 29.4934 0 19 0Z" fill="#0A73F7"/>
<path id="Path_2" d="M21.572 24.036H26.489L27.261 19.041H21.571V16.311C21.571 14.236 22.249 12.396 24.19 12.396H27.309V8.03703C26.761 7.96303 25.602 7.80103 23.412 7.80103C18.839 7.80103 16.158 10.216 16.158 15.718V19.041H11.457V24.036H16.158V37.765C17.089 37.905 18.032 38 19 38C19.875 38 20.729 37.92 21.572 37.806V24.036Z" fill="white"/>
</g>
</svg>
