<svg width="38" height="38" viewBox="0 0 38 38" fill="none" xmlns="http://www.w3.org/2000/svg">
<title>Icon Google</title>
<g id="google-icon">
<path id="Shape" d="M37.1601 19.422C37.1601 17.8598 37.0336 16.7198 36.7598 15.5376H18.9593V22.5886H29.4078C29.1972 24.3409 28.0597 26.9798 25.5317 28.753L25.4963 28.9891L31.1245 33.3586L31.5144 33.3976C35.0955 30.0831 37.1601 25.2064 37.1601 19.422Z" fill="#4285F4"/>
<path id="Shape_2" d="M18.9591 38C24.078 38 28.3754 36.311 31.5143 33.3978L25.5316 28.7533C23.9306 29.8722 21.7819 30.6533 18.9591 30.6533C13.9455 30.6533 9.69026 27.3389 8.17339 22.7578L7.95105 22.7767L2.09875 27.3156L2.02222 27.5288C5.13992 33.7355 11.5439 38 18.9591 38Z" fill="#34A853"/>
<path id="Shape_3" d="M8.17343 22.7576C7.77319 21.5754 7.54156 20.3086 7.54156 18.9998C7.54156 17.6908 7.77319 16.4242 8.15237 15.242L8.14177 14.9902L2.21614 10.3784L2.02226 10.4708C0.73731 13.0464 0 15.9387 0 18.9998C0 22.0609 0.73731 24.953 2.02226 27.5286L8.17343 22.7576Z" fill="#FBBC05"/>
<path id="Shape_4" d="M18.9591 7.34662C22.5192 7.34662 24.9206 8.88772 26.29 10.1756L31.6407 4.94C28.3545 1.8789 24.078 0 18.9591 0C11.5439 0 5.13992 4.26441 2.02222 10.471L8.15233 15.2422C9.69026 10.6611 13.9455 7.34662 18.9591 7.34662Z" fill="#EB4335"/>
</g>
</svg>
