<svg width="114" height="21" viewBox="0 0 114 21" fill="none" xmlns="http://www.w3.org/2000/svg">
<title>budgetbakers logo</title>
<g id="bb-logo-colors-black-bg">
<path id="Fill-1" fill-rule="evenodd" clip-rule="evenodd" d="M27.3149 5.10815H25.4899V15.2145C26.2994 15.5327 27.6829 15.75 28.7723 15.75C31.245 15.75 32.3635 14.8392 32.3635 11.8168C32.3635 8.83852 31.3334 7.97077 29.2579 7.97077C28.4187 7.97077 27.7273 8.21667 27.3149 8.46225V5.10815ZM28.7723 14.2749C28.3015 14.2749 27.742 14.2022 27.3149 14.0434V10.2409C27.3149 9.80697 27.9918 9.54647 28.8018 9.54647C30.0822 9.54647 30.4943 10.0239 30.4943 11.8458C30.4943 13.9422 30.0678 14.2749 28.7723 14.2749Z" fill="white"/>
<path id="Fill-3" d="M38.1301 8.08789H39.9532V15.1065C39.0271 15.4577 37.6007 15.7501 36.4096 15.7501C34.3073 15.7501 33.3659 14.9169 33.3659 12.2404V8.08789H35.1891V12.0509C35.1891 13.7029 35.4981 14.1123 36.7772 14.1123C37.2625 14.1123 37.6889 14.0539 38.1301 13.9223V8.08789Z" fill="white"/>
<path id="Fill-5" fill-rule="evenodd" clip-rule="evenodd" d="M44.5617 15.75C45.636 15.75 47.0195 15.5327 47.8292 15.2145V5.10815H46.004V8.39009C45.6064 8.17313 45.0619 7.97069 44.2083 7.97069C42.2068 7.97069 40.9556 8.88157 40.9556 11.8603C40.9556 14.8822 42.0889 15.75 44.5617 15.75ZM44.5322 9.48883C45.3564 9.48883 46.004 9.76343 46.004 10.1973V14.0004C45.6212 14.1306 45.0619 14.2172 44.5617 14.2172C43.2663 14.2172 42.8395 13.841 42.8395 11.8313C42.8395 9.99531 43.2514 9.48883 44.5322 9.48883Z" fill="white"/>
<path id="Fill-7" fill-rule="evenodd" clip-rule="evenodd" d="M49.118 11.9074C49.118 14.9336 50.2074 15.7816 52.268 15.7816C53.1218 15.7816 53.7543 15.5475 54.1663 15.2989C54.1663 16.6732 53.3569 17.0531 51.9732 17.0531C51.2668 17.0531 50.413 16.9071 49.7218 16.6879L49.3537 18.1498C50.0011 18.3979 51.1347 18.5879 51.9885 18.5879C54.3579 18.5879 55.9917 17.9451 55.9917 15.0359V8.50178C55.1823 8.16547 53.7986 7.94604 52.724 7.94604C50.2513 7.94604 49.118 8.86695 49.118 11.9074ZM52.724 9.43735C53.1805 9.43735 53.7397 9.52506 54.1663 9.68563V13.5157C54.1663 13.9687 53.4895 14.2174 52.6798 14.2174C51.3994 14.2174 51.0016 13.7493 51.0016 11.8932C51.0016 9.77367 51.429 9.43735 52.724 9.43735Z" fill="white"/>
<path id="Fill-9" fill-rule="evenodd" clip-rule="evenodd" d="M60.6098 15.7501C61.3708 15.7501 62.4692 15.5904 63.2158 15.344L62.9227 13.9221C62.3372 14.0964 61.3561 14.2266 60.8295 14.2266C59.5267 14.2266 58.9119 13.9075 58.8969 12.3267H63.7133C63.8453 8.74426 62.8207 7.94604 60.4633 7.94604C58.2965 7.94604 56.9941 8.85983 56.9941 11.819C56.9941 14.8504 58.4576 15.7501 60.6098 15.7501ZM62.0444 10.9489H58.9119C59.0286 9.73007 59.4243 9.36756 60.566 9.36756C61.6054 9.36756 61.9861 9.64304 62.0444 10.9489Z" fill="white"/>
<path id="Fill-11" d="M67.3282 9.68253V12.8847C67.3282 13.8052 67.5748 14.1851 68.445 14.1851C68.9235 14.1851 69.3439 14.0975 69.7068 13.981L70.0254 15.4136C69.5034 15.6036 68.7058 15.75 67.9951 15.75C66.3419 15.75 65.53 15.2525 65.53 13.0452V9.68253H64.2974V8.10399H65.53V6.84661L67.3282 6.10132V8.10399H69.7787V9.68253H67.3282Z" fill="white"/>
<path id="Fill-13" fill-rule="evenodd" clip-rule="evenodd" d="M73.2829 5.10815H71.4575V15.2145C72.2675 15.5327 73.6508 15.75 74.7403 15.75C77.2131 15.75 78.3311 14.8392 78.3311 11.8168C78.3311 8.83852 77.3013 7.97077 75.2258 7.97077C74.3867 7.97077 73.6952 8.21667 73.2829 8.46225V5.10815ZM74.7403 14.2749C74.269 14.2749 73.71 14.2022 73.2829 14.0434V10.2409C73.2829 9.80697 73.9599 9.54647 74.7698 9.54647C76.0501 9.54647 76.4622 10.0239 76.4622 11.8458C76.4622 13.9422 76.0354 14.2749 74.7403 14.2749Z" fill="white"/>
<path id="Fill-15" fill-rule="evenodd" clip-rule="evenodd" d="M82.3731 15.7501C83.4241 15.7501 84.8305 15.532 85.7776 15.1695V10.8181C85.7776 8.61355 84.7562 7.94604 82.5213 7.94604C81.4406 7.94604 80.3008 8.13449 79.5165 8.33758L79.8565 9.81729C80.4788 9.59964 81.3073 9.45446 82.1361 9.45446C83.7052 9.45446 84.0161 9.77361 84.0161 11.0645C83.3795 10.9342 82.7875 10.8614 82.1511 10.8614C80.3897 10.8614 79.1903 11.1951 79.1903 13.2841C79.1903 15.2128 79.9899 15.7501 82.3731 15.7501ZM82.5213 12.1527C83.0687 12.1527 83.6017 12.196 84.0161 12.2829V14.1256C83.5871 14.2703 83.0394 14.3718 82.5065 14.3718C81.3964 14.3718 81.1149 14.2125 81.1149 13.2113C81.1149 12.2688 81.4852 12.1527 82.5213 12.1527Z" fill="white"/>
<path id="Fill-17" d="M93.7969 15.6082C92.2176 13.166 91.1062 11.8359 90.7259 11.6036C91.1211 11.2983 92.1441 9.99159 93.577 8.28227H91.4277C90.3577 9.50337 89.6656 10.5618 88.9289 11.1388V5.10815H87.2096V15.6082H88.9289V11.9714C89.6656 12.5413 90.4265 13.8989 91.6617 15.6082H93.7969Z" fill="white"/>
<path id="Fill-19" fill-rule="evenodd" clip-rule="evenodd" d="M97.699 15.7501C98.46 15.7501 99.5583 15.5904 100.305 15.344L100.011 13.9221C99.4259 14.0964 98.4453 14.2266 97.9183 14.2266C96.6151 14.2266 96.0002 13.9075 95.986 12.3267H100.803C100.934 8.74426 99.9089 7.94604 97.5525 7.94604C95.386 7.94604 94.0833 8.85983 94.0833 11.819C94.0833 14.8504 95.5472 15.7501 97.699 15.7501ZM99.1338 10.9489H96.0002C96.1174 9.73007 96.5131 9.36756 97.6545 9.36756C98.6945 9.36756 99.0749 9.64304 99.1338 10.9489Z" fill="white"/>
<path id="Fill-21" d="M101.959 8.16546H103.758V8.72121C104.019 8.31182 104.585 7.94604 105.644 7.94604C105.891 7.94604 106.137 7.96072 106.399 7.99008V9.71554C106.137 9.65675 105.775 9.61313 105.456 9.61313C104.556 9.61313 103.758 9.9056 103.758 10.4467V15.6082H101.959V8.16546Z" fill="white"/>
<path id="Fill-23" d="M112.519 9.75955C111.938 9.5706 111.109 9.41119 110.368 9.41119C109.481 9.41119 109.031 9.49822 109.031 10.2667C109.031 10.7749 109.351 10.9488 110.557 11.0645C112.344 11.2535 113.129 11.8044 113.129 13.2841C113.129 15.1987 111.85 15.7501 109.961 15.7501C109.176 15.7501 108.013 15.6049 107.316 15.3581L107.694 13.9366C108.232 14.1256 109.147 14.2849 109.888 14.2849C110.876 14.2849 111.342 14.1542 111.342 13.3856C111.342 12.8634 111.051 12.6167 109.758 12.5006C108.13 12.3704 107.258 11.9205 107.258 10.3974C107.258 8.48293 108.551 7.94604 110.426 7.94604C111.196 7.94604 112.17 8.10538 112.911 8.35223L112.519 9.75955Z" fill="white"/>
<ellipse id="Oval" cx="10.5969" cy="10.5" rx="10.5969" ry="10.5" fill="white"/>
<path id="Combined-Shape" fill-rule="evenodd" clip-rule="evenodd" d="M19.8234 10.4735C19.8234 5.48818 15.7447 1.44678 10.7134 1.44678C5.68209 1.44678 1.60339 5.48818 1.60339 10.4735C1.60339 15.4589 5.68209 19.5003 10.7134 19.5003C15.7447 19.5003 19.8234 15.4589 19.8234 10.4735ZM10.6801 7.12658L10.7359 7.12613C12.581 7.12613 14.0811 8.60082 14.1109 10.4305L14.1114 10.4861C14.1114 12.3223 12.6297 13.8158 10.7917 13.8455L10.7359 13.846C8.87191 13.846 7.36031 12.3408 7.36031 10.4861C7.36031 8.64932 8.84183 7.15626 10.6801 7.12658Z" fill="url(#paint0_linear_193_617)"/>
<path id="Combined-Shape_2" fill-rule="evenodd" clip-rule="evenodd" d="M11.7801 2.42214C11.7269 2.35406 11.6461 2.31763 11.5642 2.31763L11.5465 2.31818C11.4994 2.32116 11.4524 2.33612 11.4104 2.36408L11.3846 2.38088C10.9941 2.62584 10.0888 2.80451 9.766 2.85385L9.7507 2.85659C9.60951 2.8859 9.51457 3.02047 9.53635 3.16412C9.55717 3.29906 9.67406 3.39532 9.80683 3.39532L9.84831 3.39213L9.8546 3.39118C10.0157 3.36662 11.1806 3.17802 11.7179 2.81469L11.7309 2.80534C11.845 2.71835 11.8726 2.55666 11.7904 2.43618L11.7801 2.42214ZM8.45907 3.25954L8.46463 3.27397C8.51327 3.4109 8.44504 3.56058 8.31204 3.61594L8.29754 3.62151C8.01448 3.72092 7.21699 4.0388 6.85728 4.33518L6.83344 4.35535C6.78637 4.39639 6.7291 4.4186 6.6709 4.4223L6.65342 4.42286C6.57712 4.42286 6.50139 4.39132 6.44715 4.3293C6.35134 4.22027 6.35871 4.05647 6.46158 3.9558L6.4734 3.94488C6.96403 3.51823 8.04016 3.13419 8.11324 3.1088L8.11563 3.10798C8.25336 3.05949 8.40375 3.12716 8.45907 3.25954ZM12.6003 5.7991C12.5537 5.76739 12.4998 5.75186 12.4463 5.75186L12.429 5.75239C12.3541 5.75704 12.2813 5.79182 12.2313 5.85542L12.2217 5.86826C12.1393 5.9856 12.1622 6.14787 12.2765 6.23753L12.2784 6.23903C12.3345 6.28326 13.1557 6.9204 13.7881 7.0905C13.8121 7.09722 13.836 7.1 13.86 7.1L13.8756 7.09955C13.9899 7.09299 14.0922 7.01493 14.1236 6.89887L14.1273 6.88385C14.1571 6.74363 14.0719 6.60241 13.9307 6.5646L13.9022 6.55653C13.4611 6.42579 12.8269 5.97626 12.6156 5.81027L12.6003 5.7991ZM8.04253 5.91104C8.0745 5.91104 8.10698 5.91673 8.13845 5.92863L8.1572 5.93652C8.28968 5.99735 8.34973 6.15037 8.29689 6.284L8.29079 6.29824C8.02614 6.86908 7.28325 7.67801 7.20839 7.75953L7.20504 7.76318L7.20336 7.76502C7.15321 7.81803 7.08686 7.84738 7.01939 7.85158L7.00251 7.85211C6.93592 7.85211 6.86892 7.82794 6.81648 7.77911C6.70972 7.68073 6.69966 7.51724 6.79086 7.40672L6.80183 7.39421L6.80632 7.38929C6.86828 7.32163 7.54734 6.5801 7.78415 6.09017L7.79403 6.06933C7.8377 5.97502 7.92887 5.91734 8.02625 5.91153L8.04253 5.91104ZM17.7944 8.90954C17.7703 8.90287 17.7462 8.89972 17.722 8.89972L17.7062 8.90019C17.6013 8.90638 17.5055 8.97388 17.4668 9.0789L17.4619 9.0934C17.4201 9.22914 17.4922 9.37627 17.6273 9.42784L17.6284 9.42827C17.6643 9.44253 18.2126 9.67347 18.3788 10.6228C18.4019 10.7554 18.5176 10.8485 18.648 10.8485L18.6956 10.8449L18.7108 10.8417C18.851 10.8087 18.9431 10.6724 18.9179 10.5292L18.9109 10.4907C18.6752 9.23096 17.8479 8.92786 17.8126 8.91521L17.7944 8.90954ZM15.5033 9.46061L15.4885 9.45581C15.3501 9.41516 15.2023 9.48886 15.1535 9.62619L15.1487 9.64086C15.1081 9.77822 15.1822 9.92524 15.3196 9.97373L15.3477 9.98406C15.7707 10.1466 16.3241 10.6459 16.5056 10.8283C16.5591 10.8822 16.6296 10.9092 16.7004 10.9092L16.7178 10.9087C16.7814 10.9047 16.8438 10.8788 16.8925 10.8307L16.904 10.8187C17.0001 10.7122 16.9972 10.5485 16.8953 10.4453L16.879 10.4291C16.7635 10.3153 16.0912 9.66821 15.5033 9.46061Z" fill="white" fill-opacity="0.79581"/>
<path id="Combined-Shape_3" fill-rule="evenodd" clip-rule="evenodd" d="M14.7301 3.44415L14.717 3.43485C14.5976 3.35511 14.4347 3.38139 14.3465 3.49658L14.3372 3.50962C14.2569 3.62864 14.2829 3.79076 14.3993 3.87837L14.4186 3.89324C14.8438 4.2273 15.3308 5.01173 15.3641 5.06539C15.3652 5.06703 15.3658 5.06799 15.3659 5.06823C15.4172 5.15253 15.5074 5.19948 15.6003 5.19948L15.6183 5.19888C15.6605 5.19608 15.7028 5.18341 15.7416 5.15982L15.7551 5.15113C15.8739 5.06992 15.9095 4.90986 15.8338 4.7859L15.8325 4.78384C15.7954 4.72284 15.2489 3.83638 14.7301 3.44415ZM4.86305 4.3713L4.84996 4.362C4.73048 4.28226 4.5679 4.30854 4.47964 4.42373L4.4703 4.43677C4.39022 4.55575 4.41603 4.71743 4.53215 4.80536L4.55144 4.82021C4.98976 5.16408 5.49372 5.98674 5.49867 5.99538C5.55028 6.07968 5.64074 6.12622 5.73318 6.12622L5.75131 6.12564C5.79367 6.12292 5.83628 6.11056 5.87467 6.08698L5.8882 6.07828C6.00686 5.99707 6.04244 5.83701 5.96711 5.71305L5.96585 5.71097C5.92846 5.6495 5.38182 4.76305 4.86305 4.3713ZM16.7011 4.85423C16.8396 4.85423 16.9542 4.95563 16.9718 5.09091L16.9734 5.10608C16.9738 5.11229 17.0228 5.71257 17.2729 6.18752L17.2858 6.21155C17.3555 6.33923 17.3121 6.4976 17.1893 6.57327L17.1759 6.58105C17.1403 6.60016 17.1023 6.61095 17.0644 6.61364L17.0455 6.61432C16.9483 6.61432 16.8544 6.56229 16.8045 6.4716C16.4913 5.89724 16.4314 5.19905 16.4276 5.149L16.4275 5.14713C16.4165 5.00221 16.5217 4.87562 16.6645 4.85681L16.68 4.85522L16.6906 4.85457L16.7011 4.85423ZM15.5055 6.65246L15.4905 6.64886C15.3498 6.61939 15.2083 6.70457 15.1701 6.84458L15.1632 6.86874C15.0104 7.38603 14.4419 8.02544 14.4362 8.03173L14.4258 8.04398C14.3364 8.15612 14.3495 8.31986 14.4582 8.41664C14.5103 8.46268 14.5754 8.48554 14.6403 8.48554L14.6577 8.48499C14.7272 8.48059 14.7948 8.44986 14.8446 8.39427L14.8462 8.39254C14.8905 8.34294 15.5254 7.62392 15.6985 6.98689L15.7021 6.97188C15.7319 6.83169 15.6467 6.6909 15.5055 6.65246ZM6.06322 8.37747L6.0668 8.39252C6.13279 8.71095 6.35862 9.60141 6.62439 9.97682L6.64258 10.0016C6.73068 10.1177 6.71148 10.2805 6.60216 10.3733L6.58965 10.3833C6.5456 10.4165 6.49525 10.4343 6.44402 10.4379L6.42478 10.4385C6.34164 10.4385 6.26032 10.4015 6.20615 10.3309C5.81426 9.81562 5.56495 8.66715 5.53158 8.50865L5.53028 8.50247C5.5012 8.36024 5.58905 8.22091 5.72821 8.18397L5.74331 8.1804C5.88636 8.15137 6.02612 8.23882 6.06322 8.37747ZM2.83723 9.22034L2.8519 9.22532C3.09418 9.31469 3.80973 9.53383 4.26136 9.50261L4.28982 9.50028C4.43606 9.48628 4.56472 9.58821 4.58601 9.73036L4.58788 9.74574C4.60218 9.89018 4.49955 10.0193 4.35724 10.0411L4.34185 10.043C4.30067 10.0468 4.25833 10.0494 4.21512 10.0504L4.17162 10.0509C3.52706 10.0509 2.71498 9.75554 2.66298 9.73663L2.66168 9.73615C2.5245 9.68553 2.45248 9.53798 2.49516 9.40095L2.50018 9.38631C2.55112 9.25026 2.69982 9.17797 2.83723 9.22034ZM9.66955 4.38785L9.68345 4.3959C10.2359 4.73917 10.8617 5.57211 10.9045 5.62953L10.906 5.63148C10.9925 5.74793 10.9717 5.91077 10.8612 6.0024L10.8485 6.01228C10.805 6.04433 10.7553 6.06155 10.705 6.06498L10.6861 6.06562C10.6024 6.06562 10.5193 6.02728 10.4658 5.95526L10.4647 5.95381C10.4359 5.91568 9.8728 5.16792 9.41413 4.87183L9.39355 4.8588C9.26996 4.78185 9.22912 4.62308 9.29817 4.49695L9.30629 4.48307C9.38345 4.35991 9.5431 4.31948 9.66955 4.38785Z" fill="white"/>
<path id="Combined-Shape_4" fill-rule="evenodd" clip-rule="evenodd" d="M12.1503 3.60798C12.0974 3.55617 12.0283 3.52979 11.9587 3.52979L11.941 3.53035C11.8821 3.53412 11.8241 3.55679 11.7766 3.5991L11.765 3.61007C11.6634 3.71118 11.6576 3.87494 11.754 3.9831L11.7556 3.98491C11.8036 4.03833 12.5014 4.80784 13.1257 5.04081C13.1574 5.0526 13.1895 5.05858 13.2217 5.05858L13.2375 5.05813C13.3422 5.05206 13.4387 4.98586 13.478 4.88154L13.4831 4.86691C13.526 4.72997 13.4548 4.58149 13.3178 4.53039L13.2902 4.51966C12.8743 4.35059 12.3384 3.81687 12.1632 3.62146L12.1503 3.60798ZM4.54149 6.39665C4.49694 6.29552 4.39692 6.23384 4.29085 6.23384L4.27195 6.23445C4.24671 6.23611 4.22131 6.2412 4.19603 6.25063L4.18164 6.25638C4.04966 6.31344 3.98358 6.46409 4.03428 6.60015L4.04375 6.62712C4.18783 7.05908 4.13664 7.92649 4.10367 8.23013L4.10244 8.24554C4.09503 8.38883 4.20169 8.51433 4.34641 8.53023L4.37605 8.53204L4.39078 8.53164C4.52266 8.52456 4.63324 8.42308 4.64801 8.28854L4.64863 8.28277C4.66498 8.13079 4.77272 7.02084 4.54775 6.41212L4.54149 6.39665ZM15.4213 11.1249C15.559 11.1249 15.675 11.2283 15.6914 11.3645L15.6928 11.3798C15.7102 11.6469 15.7975 12.4163 15.9945 12.8303L16.0081 12.8579C16.0742 12.9877 16.0256 13.1449 15.9009 13.2168L15.8872 13.2241C15.8535 13.2413 15.8176 13.2505 15.782 13.2528L15.7643 13.2534C15.664 13.2534 15.5678 13.1986 15.5196 13.1038C15.2239 12.5214 15.1512 11.4872 15.1467 11.4168L15.1465 11.4145C15.1371 11.2696 15.2435 11.1438 15.3866 11.1267L15.4021 11.1253L15.4118 11.1249L15.4213 11.1249ZM5.24304 11.1946C5.32087 11.1946 5.39762 11.2271 5.4512 11.2893L5.46232 11.3031C5.85924 11.8298 6.06078 12.8199 6.07443 12.8884L6.0749 12.8908C6.10295 13.0329 6.01353 13.1713 5.87389 13.2067L5.85874 13.21L5.80614 13.215C5.67774 13.215 5.5634 13.1248 5.53756 12.9947C5.48817 12.7433 5.30474 12.0241 5.04313 11.6553L5.02475 11.6302C4.93688 11.5145 4.95632 11.3513 5.06624 11.2588L5.07883 11.2488C5.12273 11.2164 5.17333 11.1988 5.22404 11.1952L5.24304 11.1946ZM18.1 7.12552C18.2247 7.12552 18.3362 7.21149 18.3657 7.33529L18.3689 7.35033C18.3944 7.49343 18.3024 7.63019 18.1623 7.66283L18.1471 7.66592C17.8453 7.71943 16.9962 7.91206 16.619 8.17004L16.594 8.18773C16.5508 8.21926 16.5009 8.23655 16.4505 8.24001L16.4316 8.24065C16.3477 8.24065 16.2651 8.20231 16.2111 8.1303C16.1246 8.01369 16.1455 7.85046 16.2563 7.75887L16.269 7.749C16.793 7.36418 17.8928 7.15792 18.0455 7.1307L18.0517 7.12961C18.0625 7.12781 18.0732 7.12659 18.0839 7.12598L18.1 7.12552Z" fill="white" fill-opacity="0.621148"/>
<path id="Fill-1_2" d="M5.36127 15.0818C4.9352 15.0818 4.57948 14.7603 4.32308 14.1174L3.74569 12.4047L3.3989 11.299C3.15043 10.7937 2.86327 10.541 2.52095 10.541C2.17863 10.541 1.89544 10.8626 1.66317 11.5057L1.64465 11.5888C1.86592 13.3952 2.67078 15.0369 3.74569 16.3518C4.07643 16.6728 4.33837 16.9743 4.65754 17.2539C5.33341 16.7617 5.89054 15.7988 6.3124 14.3648C6.04268 14.8424 5.72848 15.0818 5.36127 15.0818Z" fill="url(#paint1_linear_193_617)"/>
<path id="Fill-4" d="M18.0835 11.4419C17.6742 11.4419 17.312 11.8868 17.0211 12.7765L16.8927 13.1329L16.4612 14.502C16.2998 15.0657 16.0614 15.7881 15.7279 16.6733C15.4252 17.4768 15.0219 18.1404 14.5442 18.6671C15.415 18.263 16.2312 17.7266 16.8927 17.0835C18.133 15.967 19.0139 14.5311 19.4681 12.9106C18.9479 11.9317 18.4917 11.4419 18.0835 11.4419Z" fill="url(#paint2_linear_193_617)"/>
<path id="Fill-6" d="M16.3707 14.834C16.0813 15.6027 15.7285 15.987 15.3163 15.987C14.9041 15.987 14.5865 15.7687 14.3635 15.3319C14.147 14.5488 13.7359 14.1572 13.0988 14.1572C12.6083 14.1572 12.2623 14.5263 12.0142 14.96C11.7662 15.2969 11.634 15.6724 11.4924 15.9448C11.477 15.9957 11.4444 16.0471 11.425 16.099C10.8074 17.7599 9.89797 18.8247 8.69788 19.2959C9.34398 19.4399 10.0316 19.5165 10.7217 19.5165C11.1552 19.5165 11.6008 19.4848 12.0142 19.4268C12.9238 19.3002 13.7763 19.0402 14.5798 18.6673C15.0576 18.1405 15.441 17.4769 15.7437 16.6734C16.0772 15.7882 16.3196 15.0658 16.4812 14.5021L16.3707 14.834Z" fill="url(#paint3_linear_193_617)"/>
<path id="Fill-9_2" d="M11.3852 16.1085C11.0448 16.6595 10.7059 16.9029 10.3312 16.9029C10.202 16.9029 10.0659 16.8512 9.92314 16.7496C9.78952 16.6545 9.65003 16.5161 9.50442 16.3321L8.67012 14.39C8.41024 13.6495 8.02394 13.2793 7.5275 13.2793C7.50955 13.2793 7.46656 13.2804 7.46656 13.2812C7.05313 13.3006 6.6598 13.5787 6.4387 14.1173C6.39793 14.2061 6.3599 14.2882 6.31665 14.3647C5.89479 15.7987 5.33981 16.7616 4.66394 17.2538C5.48236 17.9711 6.47433 18.5444 7.46656 18.9346C7.71461 19.0253 7.9635 19.1063 8.21478 19.1767L8.21974 19.1684L8.22296 19.1767C8.37949 19.2206 8.53791 19.2601 8.69782 19.2958C9.89792 18.8246 10.8074 17.7598 11.425 16.099C11.4443 16.047 11.4612 15.9957 11.4767 15.9448C11.4455 16.0048 11.4151 16.0601 11.3852 16.1085Z" fill="url(#paint4_linear_193_617)"/>
</g>
<defs>
<linearGradient id="paint0_linear_193_617" x1="1.60339" y1="19.3855" x2="19.5916" y2="19.3855" gradientUnits="userSpaceOnUse">
<stop stop-color="#3DDAAE"/>
<stop offset="1" stop-color="#12D476"/>
</linearGradient>
<linearGradient id="paint1_linear_193_617" x1="2.31418" y1="15.2325" x2="4.61926" y2="16.4784" gradientUnits="userSpaceOnUse">
<stop stop-color="#515563"/>
<stop offset="1" stop-color="#383D4D"/>
</linearGradient>
<linearGradient id="paint2_linear_193_617" x1="17.55" y1="18.2003" x2="20.9945" y2="15.0344" gradientUnits="userSpaceOnUse">
<stop stop-color="#515563"/>
<stop offset="1" stop-color="#383D4D"/>
</linearGradient>
<linearGradient id="paint3_linear_193_617" x1="11.9648" y1="18.3466" x2="14.4692" y2="16.717" gradientUnits="userSpaceOnUse">
<stop stop-color="#515563"/>
<stop offset="1" stop-color="#383D4D"/>
</linearGradient>
<linearGradient id="paint4_linear_193_617" x1="6.95792" y1="18.8568" x2="9.94223" y2="18.3211" gradientUnits="userSpaceOnUse">
<stop stop-color="#515563"/>
<stop offset="1" stop-color="#383D4D"/>
</linearGradient>
</defs>
</svg>
